<?xml version="1.0" standalone="no"?>
<!DOCTYPE svg PUBLIC "-//W3C//DTD SVG 20010904//EN"
 "http://www.w3.org/TR/2001/REC-SVG-20010904/DTD/svg10.dtd">
<svg version="1.0" xmlns="http://www.w3.org/2000/svg"
 width="2160.000000pt" height="2160.000000pt" viewBox="0 0 2160.000000 2160.000000"
 preserveAspectRatio="xMidYMid meet">
<metadata>
Created by potrace 1.14, written by Peter Selinger 2001-2017
</metadata>
<g transform="translate(0.000000,2160.000000) scale(0.100000,-0.100000)"
fill="#000000" stroke="none">
<path d="M295 21586 c-33 -7 -73 -19 -90 -26 -82 -38 -150 -119 -183 -221 -16
-51 -17 -402 -17 -6469 0 -3528 3 -6452 7 -6497 20 -222 80 -389 175 -489 21
-22 146 -121 278 -220 132 -98 245 -183 250 -187 6 -5 145 -109 310 -233 165
-123 329 -246 365 -273 73 -56 552 -415 594 -446 15 -11 51 -38 80 -60 29 -22
65 -49 80 -60 53 -39 462 -346 526 -394 54 -42 146 -111 360 -271 14 -10 138
-103 275 -207 138 -103 263 -197 278 -208 14 -11 87 -65 160 -120 73 -55 146
-109 161 -120 15 -11 99 -74 186 -140 88 -66 226 -169 307 -230 81 -60 152
-114 158 -118 5 -5 199 -150 430 -323 231 -174 431 -324 445 -334 14 -10 331
-248 705 -528 374 -280 691 -518 705 -529 14 -11 453 -340 975 -732 523 -391
957 -717 965 -724 25 -20 574 -431 597 -447 12 -8 291 -217 620 -465 329 -247
624 -462 656 -478 74 -37 175 -44 253 -18 45 15 138 71 191 116 10 8 203 152
428 321 226 169 424 317 440 330 43 33 1470 1104 1512 1134 58 42 888 664 893
670 3 3 75 57 160 120 85 63 157 117 160 120 3 3 147 111 320 240 173 129 317
237 320 240 3 3 21 17 40 30 19 14 44 32 55 41 11 10 151 114 310 233 160 119
297 222 305 229 8 6 157 118 330 247 173 129 317 237 320 240 3 3 252 190 554
415 301 226 553 415 560 420 6 6 63 48 126 95 63 47 117 87 120 90 3 3 90 68
193 145 104 77 194 145 200 150 7 6 46 35 87 65 41 30 82 60 90 67 8 7 85 64
170 128 223 167 238 178 268 201 15 12 131 99 257 193 127 95 243 182 259 194
16 12 232 174 480 360 248 186 464 348 480 360 16 12 54 41 85 64 86 65 85 65
428 321 177 133 337 258 357 278 105 108 158 254 183 504 5 41 8 2955 8 6475
0 5424 -2 6408 -14 6455 -29 114 -94 206 -174 244 -21 9 -66 24 -100 31 -88
19 -20919 20 -21012 1z"/>
</g>
</svg>
